<?xml version="1.0" encoding="iso-8859-1"?>
<!-- Generator: Adobe Illustrator 19.0.0, SVG Export Plug-In . SVG Version: 6.00 Build 0)  -->
<svg version="1.1" id="Capa_1" xmlns="http://www.w3.org/2000/svg" xmlns:xlink="http://www.w3.org/1999/xlink" x="0px" y="0px"
	 viewBox="0 0 512 512" style="enable-background:new 0 0 512 512;" xml:space="preserve">
<path style="fill:#6EBC4A;" d="M256,11.817c-92.519,0-167.787,75.27-167.787,167.789c0,5.025,0.237,10.187,0.705,15.344
	c0.44,4.855,3.212,9.193,7.433,11.633c4.221,2.439,9.361,2.674,13.79,0.633c18.135-8.367,37.53-12.609,57.648-12.609
	c28.7,0,56.205,8.737,79.541,25.267c2.597,1.84,5.634,2.76,8.67,2.76c3.036,0,6.073-0.92,8.67-2.76
	c23.336-16.529,50.842-25.267,79.543-25.267c20.118,0,39.514,4.242,57.648,12.609c4.428,2.044,9.57,1.806,13.79-0.633
	c4.221-2.439,6.992-6.777,7.433-11.632c0.468-5.157,0.705-10.319,0.705-15.345C423.789,87.087,348.52,11.817,256,11.817z"/>
<path style="fill:#FF598B;" d="M264.67,444.916c-36.471-25.834-58.244-67.898-58.244-112.522c0-4.124,0.196-8.375,0.582-12.633
	c0.573-6.32-2.893-12.317-8.654-14.976c-44.64-20.596-75.125-63.721-79.559-112.546c-0.44-4.855-3.213-9.192-7.434-11.631
	c-4.22-2.439-9.362-2.676-13.789-0.633c-28.712,13.247-53.047,34.274-70.373,60.811C9.405,268.038,0,299.716,0,332.394
	c0,92.52,75.27,167.789,167.789,167.789c34.948,0,68.45-10.645,96.882-30.786c3.97-2.813,6.329-7.375,6.329-12.24
	C271,452.291,268.641,447.728,264.67,444.916z"/>
<path style="fill:#FFD97D;" d="M264.67,195.393c-28.433-20.141-61.934-30.786-96.881-30.786c-24.489,0-48.114,5.171-70.217,15.369
	c-5.763,2.659-9.229,8.656-8.654,14.977c5.4,59.475,42.518,111.998,96.867,137.073c1.999,0.922,4.143,1.38,6.283,1.38
	c2.6,0,5.191-0.675,7.506-2.013c4.221-2.439,6.993-6.776,7.434-11.631c3.641-40.102,24.658-76.51,57.662-99.889
	c3.971-2.813,6.33-7.375,6.33-12.24S268.641,198.205,264.67,195.393z"/>
<path style="fill:#09426D;" d="M484.802,240.786c-17.326-26.535-41.66-47.563-70.372-60.811c-4.428-2.042-9.569-1.806-13.789,0.633
	c-4.221,2.439-6.993,6.776-7.434,11.631c-4.434,48.824-34.919,91.949-79.559,112.545c-5.762,2.658-9.228,8.655-8.654,14.975
	c0.386,4.26,0.582,8.511,0.582,12.635c0,44.624-21.774,86.688-58.246,112.522c-3.971,2.812-6.33,7.375-6.33,12.24
	s2.359,9.428,6.329,12.24c28.432,20.141,61.934,30.786,96.884,30.786c92.519,0,167.787-75.27,167.787-167.789
	C512,299.716,502.595,268.038,484.802,240.786z"/>
<path style="fill:#91E1FF;" d="M414.43,179.976c-22.103-10.198-45.728-15.369-70.217-15.369c-34.948,0-68.45,10.646-96.883,30.786
	c-3.971,2.813-6.33,7.375-6.33,12.24s2.359,9.429,6.33,12.24c33.005,23.379,54.023,59.786,57.664,99.888
	c0.44,4.854,3.213,9.192,7.434,11.631c2.314,1.338,4.906,2.013,7.506,2.013c2.14,0,4.284-0.458,6.283-1.38
	c54.35-25.075,91.467-77.599,96.867-137.072C423.658,188.632,420.192,182.635,414.43,179.976z"/>
<path style="fill:#FFB8AA;" d="M334.871,317.05c-0.44-4.855-3.212-9.193-7.433-11.633c-4.222-2.439-9.363-2.676-13.79-0.633
	c-18.135,8.367-37.53,12.609-57.648,12.609c-20.117,0-39.513-4.242-57.646-12.608c-4.427-2.044-9.569-1.808-13.79,0.633
	c-4.221,2.439-6.992,6.777-7.433,11.632c-0.468,5.156-0.705,10.319-0.705,15.344c0,54.339,26.506,105.555,70.904,137.003
	c2.598,1.84,5.633,2.76,8.67,2.76c3.036,0,6.073-0.92,8.67-2.76c44.399-31.448,70.906-82.664,70.906-137.003
	C335.576,327.369,335.339,322.207,334.871,317.05z"/>
<path style="fill:#C7EFFF;" d="M334.871,317.048c-4.436-48.855-30.022-93.196-70.201-121.655c-5.193-3.68-12.145-3.68-17.341,0
	c-40.176,28.459-65.763,72.801-70.198,121.656c-0.574,6.32,2.892,12.318,8.654,14.977c22.104,10.197,45.727,15.368,70.215,15.368
	c24.489,0,48.113-5.171,70.217-15.369C331.979,329.365,335.445,323.368,334.871,317.048z"/>
<g>
</g>
<g>
</g>
<g>
</g>
<g>
</g>
<g>
</g>
<g>
</g>
<g>
</g>
<g>
</g>
<g>
</g>
<g>
</g>
<g>
</g>
<g>
</g>
<g>
</g>
<g>
</g>
<g>
</g>
</svg>
